{"title":"Bullett Raja 2013 Hindi Movie XviD pDVDRIP GOPI-SAHI PDR TEAM-IC","uid":9277912,"size":732024894,"categoryP":"video","categoryS":"movies","magnet":"?xt=urn:btih:c57e62315053e4c05935b65ec67f6a3fb04e39b6&amp;dn=Bullett+Raja+2013+Hindi+Movie+XviD+pDVDRIP+GOPI-SAHI+PDR+TEAM-IC&amp;tr=udp%3A%2F%2Ftracker.openbittorrent.com%3A80&amp;tr=udp%3A%2F%2Fopen.demonii.com%3A1337&amp;tr=udp%3A%2F%2Ftracker.coppersurfer.tk%3A6969&amp;tr=udp%3A%2F%2Fexodus.desync.com%3A6969","seeders":1,"leechers":0,"uploader":"jatt13","files":1,"time":1385892563,"description":"[img]http://imageshack.com/a/img163/2465/5pjh.jpg[/img]\n[url]http://www.imdb.com/title/tt2551378/[/url]\nVideo\nID                             : 0\nFormat                         : MPEG-4 Visual\nFormat profile                 : Advanced Simple@L5\nFormat settings, BVOP          : Yes\nFormat settings, QPel          : No\nFormat settings, GMC           : No warppoints\nFormat settings, Matrix        : Default (H.263)\nCodec ID                       : XVID\nCodec ID/Hint                  : XviD\nDuration                       : 2h 6mn\nBit rate                       : 686 Kbps\nWidth                          : 640 pixels\nHeight                         : 272 pixels\nDisplay aspect ratio           : 2.35:1\nFrame rate                     : 20.000 fps\nColor space                    : YUV\nChroma subsampling             : 4:2:0\nBit depth                      : 8 bits\nScan type                      : Progressive\nCompression mode               : Lossy\nBits/(Pixel*Frame)             : 0.197\nStream size                    : 621 MiB (89%)\nWriting library                : XviD 1.2.1 (UTC 2008-12-04)\n\nAudio\nID                             : 1\nFormat                         : MPEG Audio\nFormat version                 : Version 1\nFormat profile                 : Layer 3\nMode                           : Joint stereo\nMode extension                 : MS Stereo\nCodec ID                       : 55\nCodec ID/Hint                  : MP3\nDuration                       : 2h 6mn\nBit rate mode                  : Constant\nBit rate                       : 80.0 Kbps\nChannel count                  : 2 channels\nSampling rate                  : 32.0 KHz\nCompression mode               : Lossy\nStream size                    : 72.5 MiB (10%)\nAlignment                      : Aligned on interleaves\nInterleave, duration           : 200 ms (4.00 video frames)\nInterleave, preload duration   : 216 ms\nTitle                          : VTS_01_1 Tc0 L2 2ch 48 128 DELAY 0ms\nWriting library                : LAME3.99r\nEncoding settings              : -m j -V 4 -q 2 -lowpass 13.5 -b 80\n[img]http://imageshack.com/a/img20/6109/gw5f.jpg[/img]\n[img]http://imageshack.com/a/img24/3708/nzx5.png[/img]\n[img]http://imageshack.com/a/img855/7462/g3he.png[/img]\n[img]http://imageshack.com/a/img824/6067/08z4.png[/img]\n[img]http://imageshack.com/a/img43/4084/h9s4.png[/img]","torrent":{"xt":"urn:btih:c57e62315053e4c05935b65ec67f6a3fb04e39b6","amp;dn":"Bullett+Raja+2013+Hindi+Movie+XviD+pDVDRIP+GOPI-SAHI+PDR+TEAM-IC","amp;tr":["udp%3A%2F%2Ftracker.openbittorrent.com%3A80","udp%3A%2F%2Fopen.demonii.com%3A1337","udp%3A%2F%2Ftracker.coppersurfer.tk%3A6969","udp%3A%2F%2Fexodus.desync.com%3A6969"],"infoHash":"c57e62315053e4c05935b65ec67f6a3fb04e39b6","infoHashBuffer":{"type":"Buffer","data":[197,126,98,49,80,83,228,192,89,53,182,94,198,127,106,63,176,78,57,182]},"announce":[],"urlList":[]}}